<svg version="1.1" id="Layer_1" xmlns="http://www.w3.org/2000/svg" xmlns:xlink="http://www.w3.org/1999/xlink" x="0px" y="0px"
	 width="100%" viewBox="0 0 1024 768" enable-background="new 0 0 1024 768" xml:space="preserve">
<path fill="#000000" opacity="1.000000" stroke="none" 
	d="
M846.784790,394.000000 
	C846.745728,383.669464 846.730530,373.838715 846.656738,364.008453 
	C846.626343,359.964478 846.181030,356.007965 843.424011,352.723297 
	C843.108337,352.347260 842.595764,351.790497 842.689697,351.467468 
	C844.802490,344.207123 841.279846,336.305450 845.186340,328.960876 
	C843.393433,326.715057 841.355835,324.322113 839.503418,321.793518 
	C837.946838,319.668793 835.963501,317.519409 839.625977,315.235321 
	C841.284241,314.201111 840.240356,312.582428 839.363953,311.277832 
	C837.410583,313.657166 835.839233,315.836700 832.238464,312.920685 
	C825.669800,307.601318 817.954163,305.056641 809.385254,305.511078 
	C807.971313,305.586029 806.732666,305.016876 805.774963,304.050964 
	C803.849060,302.108521 801.768005,302.044403 799.377808,303.077545 
	C797.690125,303.807068 795.655518,304.594330 794.090454,303.419647 
	C788.973206,299.578796 785.139221,303.261688 780.712341,305.204376 
	C781.997314,306.815308 783.162476,308.564636 781.276428,309.939026 
	C779.132507,311.501221 777.276794,310.514954 776.229126,307.709747 
	C774.990723,311.675507 773.687622,314.745911 769.187012,313.275146 
	C767.004272,312.561859 766.231445,314.258728 765.177490,315.442688 
	C762.467102,318.487396 759.808594,321.578217 756.976013,324.826447 
	C755.137512,322.874359 755.799500,320.901672 756.619263,319.176636 
	C758.314087,315.610107 758.318909,312.756531 755.024658,309.839630 
	C753.289429,308.303192 752.795654,305.441711 751.465515,303.354370 
	C748.968750,299.436249 746.039673,299.365845 743.068237,302.967102 
	C738.122742,308.960815 738.080933,316.935089 742.883545,323.296661 
	C744.471436,325.400024 746.688599,325.050720 748.811340,325.043060 
	C754.409851,325.022888 757.519958,327.565094 758.003845,333.135956 
	C758.334534,336.943329 758.220032,340.793579 758.221741,344.624695 
	C758.244507,394.612915 758.254150,444.601166 758.261780,494.589386 
	C758.262817,501.286591 758.234802,501.222565 751.632202,501.318542 
	C741.479065,501.466125 731.319397,500.764374 721.169006,501.677490 
	C717.891663,501.972321 716.917969,499.992340 717.067932,496.933777 
	C717.989807,478.127716 717.608826,459.305847 717.615662,440.489502 
	C717.642334,367.173492 717.706482,293.857361 717.546387,220.541733 
	C717.530823,213.414490 718.595642,205.940033 714.181152,199.300873 
	C712.921814,197.406967 713.210632,194.967316 717.160034,195.771973 
	C713.406006,190.681015 713.406006,190.681015 715.735596,183.910995 
	C714.404785,182.773392 712.903625,185.057312 711.578430,183.679749 
	C709.231567,176.524765 709.751892,175.056320 714.581177,175.355377 
	C714.848389,174.307953 714.709167,173.699875 713.585632,172.962997 
	C708.937622,169.914429 709.055237,168.409775 712.958862,164.850525 
	C715.348938,162.671280 713.926331,160.042999 712.219971,157.606674 
	C712.962585,157.177094 713.630188,156.489182 713.997559,156.623352 
	C720.141785,158.867249 726.649475,158.991592 732.868958,158.347183 
	C737.817505,157.834457 742.957703,158.542480 747.782959,156.727264 
	C754.087585,154.355484 758.239807,157.341202 758.236389,164.071701 
	C758.218933,198.063507 758.229431,232.055313 758.237122,266.047119 
	C758.238098,270.519348 758.586731,274.934052 760.312561,279.265961 
	C764.164001,278.831726 766.151733,276.300232 768.229065,274.002991 
	C773.596130,268.067871 780.063721,263.606537 788.180481,265.173370 
	C793.204590,266.143158 797.141113,267.889404 799.820740,261.876373 
	C800.150696,261.136017 802.239929,261.135193 803.530823,260.875793 
	C807.415222,260.095276 811.121277,259.420776 814.555359,256.794159 
	C818.186035,254.017151 822.494507,257.070953 826.414185,257.587677 
	C835.246704,258.752014 843.821106,261.321472 852.353882,263.947174 
	C856.084412,265.095123 860.291138,266.719788 862.342224,269.219757 
	C869.681763,278.165710 880.433533,283.622040 885.061157,295.776031 
	C888.001770,303.498962 889.650879,310.780518 889.644836,318.574615 
	C889.640442,324.292847 894.471924,328.797974 892.870483,334.745026 
	C892.540344,335.971191 892.911438,337.570862 891.927734,338.494110 
	C887.582764,342.571808 888.294067,347.819885 888.297974,352.952026 
	C888.334167,400.773468 888.314880,448.594971 888.445801,496.416138 
	C888.455994,500.135834 887.299255,501.474792 883.605225,501.358276 
	C877.446350,501.163940 871.273926,501.431671 865.112122,501.290436 
	C859.317139,501.157684 853.776550,502.220825 847.432861,505.428650 
	C846.056152,485.975220 847.011719,467.710724 846.827026,449.485168 
	C846.641296,431.158539 846.785461,412.828522 846.784790,394.000000 
M878.493164,331.964691 
	C878.217407,327.407776 878.844971,322.700470 875.885254,318.621368 
	C875.374329,317.917328 875.319397,316.627686 875.516724,315.707825 
	C876.440491,311.400391 875.075745,309.572174 870.594543,311.200653 
	C870.220581,310.234772 869.994507,309.621490 869.747131,309.016968 
	C867.537415,303.617859 866.100708,303.299774 862.332397,307.519684 
	C861.296753,308.679443 860.316467,309.960571 858.660400,309.675995 
	C853.732605,308.829071 852.806458,311.955566 852.115295,315.733887 
	C850.736084,323.274200 852.913879,330.931091 851.246643,338.464447 
	C851.071716,339.254883 851.787354,340.328918 852.273193,341.164825 
	C855.212585,346.222260 861.216370,349.516937 865.383911,348.423767 
	C870.872986,346.983978 878.579712,337.892273 878.493164,331.964691 
z"/>
<path fill="#000000" opacity="1.000000" stroke="none" 
	d="
M457.379761,459.372498 
	C453.943970,466.412750 448.982819,471.025818 439.765411,471.923431 
	C442.461304,473.690948 445.151764,472.211639 445.303040,474.725464 
	C445.423615,476.729553 444.281952,478.178802 442.668732,479.265747 
	C438.345062,482.178802 434.733154,485.397095 432.896881,490.751038 
	C431.659393,494.359070 428.619446,497.243561 424.726685,499.097626 
	C419.619965,501.529907 414.899719,504.676086 411.306763,509.283905 
	C409.673737,511.378204 407.582367,513.157898 405.006256,514.082336 
	C399.226288,516.156555 396.147675,521.489807 391.697662,525.156860 
	C387.997955,528.205627 383.974030,529.530212 379.470459,530.171387 
	C373.022247,531.089294 366.675110,532.429443 360.966034,535.737793 
	C358.555298,537.134827 355.881927,537.517761 353.301392,537.762329 
	C349.436310,538.128662 345.787994,539.022522 342.185577,540.369263 
	C338.998077,541.560913 335.911774,541.472778 332.460724,540.666199 
	C326.772156,539.336670 320.882996,538.918091 315.938782,543.444641 
	C313.801300,545.401550 311.454956,544.878113 309.885223,542.672241 
	C308.225159,540.339478 310.123901,539.165039 312.745117,537.917419 
	C308.322662,537.173157 304.693542,536.183044 302.261932,541.174622 
	C300.029541,537.417297 297.754944,536.776550 294.192444,538.819885 
	C291.822327,540.179382 289.128998,538.262512 286.540405,535.784424 
	C283.854218,541.280579 279.835541,543.837524 273.974792,542.023132 
	C273.349915,541.829773 272.295563,541.987610 272.092499,541.621094 
	C268.294678,534.767151 262.000000,538.529968 256.786926,538.075500 
	C251.906616,537.650146 247.213928,535.660095 244.263443,532.647400 
	C241.326004,529.647888 237.992676,528.704163 234.703873,527.001831 
	C227.766037,523.410522 221.064972,519.345825 214.041794,515.939148 
	C202.428513,510.305969 193.184509,502.034332 185.284943,491.966064 
	C182.840973,488.851166 179.930573,485.868866 176.662003,483.679382 
	C167.862045,477.784790 163.814453,468.220306 157.558182,460.361328 
	C152.123657,453.534576 149.772018,445.144043 144.920731,438.074707 
	C142.711197,434.854980 142.994797,430.728455 141.984024,427.053101 
	C139.630783,418.496246 134.585434,410.888916 133.628845,401.774078 
	C133.269211,398.347107 131.099182,395.019135 129.366730,391.858612 
	C128.174255,389.683136 128.106125,388.099548 130.245407,386.781982 
	C133.049332,385.055054 133.697403,382.805023 133.062454,379.558105 
	C132.530060,376.835663 132.847473,373.917450 133.008820,371.098541 
	C133.131027,368.963806 133.987366,367.561157 136.603607,369.409515 
	C136.603607,367.477997 136.603607,365.705780 136.603607,363.414978 
	C131.882202,364.447388 131.532578,362.418549 132.689575,358.249023 
	C134.675186,351.093292 133.930206,343.635651 133.519714,336.326080 
	C133.351730,333.335083 133.698822,330.787231 135.047150,328.216522 
	C137.221771,324.070343 138.739960,319.758392 139.312927,315.020721 
	C139.857895,310.514465 141.813797,306.419983 144.742264,302.843994 
	C148.081589,298.766266 147.543518,293.417389 149.188568,288.763123 
	C151.300522,282.787750 153.577148,280.896637 159.665695,281.342346 
	C161.737778,278.492340 162.324493,275.806671 161.508240,271.904572 
	C160.608688,267.604248 164.688385,264.100555 167.128738,260.640564 
	C169.796478,256.858154 173.177231,253.579498 176.236710,250.072128 
	C177.736526,248.352753 179.754379,246.896820 181.857224,247.357010 
	C185.829636,248.226395 187.002609,245.348007 188.663727,242.804871 
	C187.574783,243.326172 186.485840,243.847473 185.474075,244.331833 
	C184.413681,243.836853 184.270508,242.944275 184.416443,242.163757 
	C185.413330,236.832169 189.843628,234.507568 193.675812,231.612198 
	C196.694473,229.331497 199.582214,227.592438 203.392303,233.060471 
	C201.946976,223.000916 209.268250,221.737640 213.907196,218.357361 
	C223.739380,211.192902 234.885880,206.363998 245.543091,200.646622 
	C250.482239,197.996857 255.251190,196.870148 260.417236,195.978912 
	C261.883942,195.725876 263.767975,195.810287 264.709900,194.933456 
	C271.034393,189.046143 278.755920,189.338837 286.504822,189.617172 
	C287.918701,189.667969 289.142700,189.292313 290.255157,188.505325 
	C292.233063,187.106064 293.854065,187.599701 295.639282,189.059860 
	C297.691620,190.738480 299.850555,192.444977 302.242798,193.513199 
	C305.947479,195.167435 309.374603,196.162720 312.724854,191.712723 
	C315.729248,187.722107 320.974670,186.475143 325.844666,187.472794 
	C328.903076,188.099319 331.952057,188.895630 335.068420,189.371765 
	C337.211273,189.699173 339.101379,190.294403 340.518463,192.377609 
	C342.176147,194.814514 345.056152,195.915771 347.880493,196.140549 
	C357.152191,196.878433 365.443420,201.028488 374.240295,203.254852 
	C383.170624,205.515015 390.832001,210.660156 399.864105,212.717163 
	C404.248779,213.715759 408.157654,218.021530 411.644989,221.473572 
	C417.779510,227.546005 424.290680,233.126053 430.977234,238.556534 
	C433.518921,240.620789 435.555603,243.318390 437.762482,245.781067 
	C442.827118,251.432678 447.886139,257.089996 452.879852,262.804077 
	C454.526459,264.688202 455.862335,266.774445 456.277771,269.367798 
	C456.659698,271.751862 458.375854,273.204620 459.941437,274.987823 
	C466.709991,282.697205 470.744049,291.679993 473.404388,301.771698 
	C475.291260,308.929413 475.854065,316.448792 479.391632,323.445435 
	C481.980835,328.566406 482.845367,335.174469 481.363434,341.391937 
	C481.133392,342.357086 480.194885,343.733398 480.536865,344.165649 
	C484.177643,348.767151 481.129150,354.166046 482.487854,359.030579 
	C483.624817,363.101318 483.569916,367.258026 481.803864,371.240845 
	C481.106232,372.814148 480.682098,374.593323 481.249542,376.121399 
	C485.442139,387.412445 480.419250,397.971619 478.740448,408.776031 
	C478.434631,410.744110 477.991394,412.683777 477.972839,414.683716 
	C477.955658,416.536072 478.089325,418.615997 476.671631,419.891083 
	C468.174805,427.533142 469.275238,439.376221 464.079895,448.528198 
	C462.031128,452.137329 459.471710,455.399933 457.379761,459.372498 
M376.111084,230.452545 
	C371.250214,228.522858 367.754608,223.586288 361.835968,223.981003 
	C360.113495,224.095856 358.695953,223.314621 357.140686,222.650040 
	C350.413300,219.775513 343.808502,215.711090 336.624359,215.057236 
	C326.686737,214.152786 316.539978,213.528870 306.558167,215.844238 
	C303.028748,216.662949 299.495880,217.187042 295.770081,215.748062 
	C293.250336,214.774872 290.320129,215.117996 287.469177,215.226181 
	C283.385193,215.381149 279.745697,216.922089 275.898224,217.453598 
	C266.663116,218.729401 257.202515,219.348099 249.266556,224.657166 
	C245.477722,227.191833 240.499573,228.071075 237.785507,231.799484 
	C235.474091,234.974792 232.388687,237.161819 229.187347,238.297852 
	C224.309570,240.028778 220.502426,243.066452 216.485184,245.948685 
	C213.925705,247.785065 211.736404,250.341141 208.942566,251.605087 
	C202.964981,254.309341 199.228577,259.428650 194.566315,263.570679 
	C189.751251,267.848450 188.093399,274.489258 183.166565,278.542542 
	C169.778885,289.556488 166.413864,305.950348 160.072464,320.778076 
	C157.160080,327.587921 156.854874,334.863159 155.370438,341.933899 
	C153.820343,349.317505 155.128082,357.217773 151.240891,364.193237 
	C150.496536,365.528931 151.098602,367.446350 151.778549,369.041107 
	C154.254608,374.848297 153.205933,381.279663 155.256989,387.371552 
	C156.527802,391.146027 156.762421,395.341125 159.302673,398.751038 
	C160.129517,399.860962 160.819077,401.024048 160.519760,402.423187 
	C158.667084,411.083252 164.248154,417.942261 166.299103,425.627563 
	C168.298325,433.119019 174.285889,438.216370 178.986496,444.200562 
	C185.881973,452.978882 194.571838,460.342896 200.063461,470.255890 
	C201.252991,472.403107 203.230331,474.049835 205.642563,475.084076 
	C214.910431,479.057617 224.621658,482.214417 230.082443,491.968842 
	C232.983002,497.150055 239.336151,499.062439 243.149902,503.122070 
	C249.379684,509.753510 256.158295,509.819000 264.123383,508.186005 
	C266.104706,513.027100 270.266846,514.720581 275.252869,515.607971 
	C283.501251,517.075989 291.925293,515.782715 300.212952,518.183716 
	C305.500183,519.715454 311.203461,516.314087 316.987335,516.922180 
	C329.426422,518.230103 341.742706,517.446716 353.763702,513.620850 
	C355.976929,512.916504 358.166077,512.244629 359.935333,514.941284 
	C361.006256,516.573486 366.772461,515.596863 367.323975,513.631775 
	C368.436554,509.667572 370.644928,509.653534 374.103485,510.351898 
	C377.081757,510.953308 379.519531,508.797058 381.791290,507.053467 
	C381.033752,505.643066 379.578461,507.386292 379.094299,505.820892 
	C380.720917,503.157806 383.064636,501.375458 386.204132,500.951324 
	C389.328857,500.529236 391.149780,498.705353 392.792786,496.189667 
	C394.774445,493.155518 396.598145,489.763123 400.321960,488.457245 
	C402.608032,487.655579 403.513336,485.931793 404.656738,484.011658 
	C407.247986,479.660095 408.381256,474.167450 413.123291,471.400574 
	C420.551758,467.066254 426.958923,461.662048 431.607727,454.419556 
	C435.626556,448.158478 440.349609,442.310455 444.059631,435.957153 
	C448.106262,429.027374 453.125427,421.625183 452.608582,413.376068 
	C452.095917,405.193909 456.913330,397.963287 455.302704,389.854279 
	C455.009918,388.380341 456.288055,387.094788 457.461487,386.086060 
	C458.473389,385.216156 459.601105,384.383362 459.799438,382.956238 
	C461.188782,372.960327 459.456146,362.930145 459.871552,352.893433 
	C459.975433,350.383972 458.676300,347.556915 460.375244,344.678040 
	C456.384033,343.109070 455.083557,340.787903 456.807251,336.839722 
	C457.455353,335.355286 456.833679,333.233734 456.550171,331.440674 
	C455.667664,325.859497 452.624878,320.781708 451.628754,315.456146 
	C449.947662,306.468414 445.743103,298.964752 441.235138,291.416229 
	C438.090942,286.151276 435.469482,280.419403 431.533051,275.822083 
	C426.786102,270.278137 422.444214,264.408600 417.584961,258.961334 
	C411.250214,251.859970 403.792725,245.861038 395.903961,240.943924 
	C390.864044,237.802490 385.236237,235.208267 380.019073,232.084869 
	C379.029694,231.492554 377.884125,231.161118 376.111084,230.452545 
M399.221802,513.518188 
	C397.047760,510.754120 396.688477,510.846710 392.792084,515.819519 
	C395.224670,514.510559 397.300598,515.599976 399.221802,513.518188 
z"/>
<path fill="#000000" opacity="1.000000" stroke="none" 
	d="
M585.631348,554.813354 
	C586.838928,552.729065 585.404419,552.512695 584.198730,551.810608 
	C578.806763,548.670837 578.402466,543.935364 582.982666,539.853943 
	C588.024109,535.361389 589.759888,529.334717 589.807434,522.955566 
	C590.024841,493.808014 590.018433,464.658813 590.112366,435.510254 
	C590.114380,434.875763 590.355896,434.242035 591.466125,433.483276 
	C591.980835,437.726196 592.820007,441.960175 592.937134,446.214050 
	C593.132141,453.295074 596.792236,458.845947 600.389160,464.413177 
	C602.207031,467.226837 611.617126,469.728333 614.665588,468.700439 
	C616.459045,468.095734 617.321228,466.677460 617.759827,465.048859 
	C618.580322,462.002319 619.372986,458.932526 619.895569,455.825043 
	C620.750732,450.741119 620.955811,445.510498 622.227539,440.544708 
	C623.445496,435.789307 627.533508,432.091797 627.835754,426.707275 
	C629.490906,431.000671 629.994690,435.281769 630.025574,439.622284 
	C630.198303,463.942963 630.204407,488.265991 630.577637,512.583435 
	C630.699280,520.508545 630.318542,528.603027 633.610352,536.183716 
	C633.989502,537.056763 634.170837,538.229065 633.930969,539.125366 
	C630.700989,551.196289 633.101135,564.322449 626.214661,575.874878 
	C624.136536,579.360962 623.734497,584.276611 621.546631,588.196533 
	C620.621216,589.854431 619.901306,591.605530 617.226868,590.288757 
	C617.544006,587.386292 620.193542,585.221497 620.048218,581.197083 
	C617.555847,585.903259 613.877075,588.952759 614.371216,594.182373 
	C614.625000,596.868469 608.510681,604.391541 606.116272,605.427124 
	C603.686584,606.477905 602.510437,604.410034 600.832520,603.633972 
	C596.871033,611.733765 589.925476,615.578308 581.590332,617.321899 
	C577.536194,618.170044 573.704529,620.052429 569.444885,619.940002 
	C565.711365,619.841431 561.058716,621.136230 562.213928,614.623352 
	C561.265930,614.691101 560.880432,614.605713 560.637634,614.753906 
	C558.624146,615.983459 560.414368,619.915405 556.548828,620.070679 
	C552.423645,620.236450 548.443115,619.838562 545.011841,617.629761 
	C540.851868,614.951782 537.000671,611.794128 532.761414,608.655701 
	C534.150391,606.362854 535.516235,604.489441 532.742981,602.187683 
	C530.676025,600.472168 533.064392,587.348877 535.170166,585.716309 
	C536.544067,584.651123 538.105591,585.741272 539.762634,585.154175 
	C540.398926,582.568481 541.066467,579.855835 541.775818,576.973389 
	C541.086487,575.481506 538.630737,578.374573 538.317505,575.878723 
	C538.067749,573.888123 539.534607,572.817017 541.046753,572.108276 
	C545.761963,569.898560 550.341125,571.440735 554.500366,573.488892 
	C558.816162,575.614136 561.864258,573.982727 565.508606,571.908875 
	C571.692261,568.390015 576.853333,563.821106 580.408264,557.835510 
	C581.888794,555.342590 585.598877,558.964233 585.631348,554.813354 
M583.793274,582.285522 
	C581.824036,583.520081 579.813049,584.693542 577.894104,586.001709 
	C573.694031,588.864868 568.327759,590.681152 567.537048,597.072815 
	C570.227966,598.288757 572.966248,599.063232 574.759155,601.468140 
	C575.595459,602.589966 577.202881,602.997620 578.387634,602.132507 
	C581.510742,599.851929 584.588562,600.527405 587.861877,601.650818 
	C589.777161,602.308167 591.891174,602.198792 593.713135,601.223511 
	C607.030273,594.094788 614.615662,582.889832 616.970337,568.074646 
	C617.569580,564.303772 617.587463,560.419250 618.435120,556.715698 
	C619.159180,553.552063 618.949951,550.892944 616.469910,548.556213 
	C617.922913,546.415771 618.919739,544.184387 620.570984,542.663391 
	C624.859741,538.712769 626.320679,534.201904 624.503174,528.859863 
	C623.017700,524.493958 620.522949,523.746521 615.915527,524.662781 
	C609.759399,525.887085 604.068970,528.999695 597.648682,529.019104 
	C594.157532,529.029663 592.427185,530.391663 593.025818,534.245728 
	C594.376831,542.943420 591.357605,551.555725 592.312988,560.287781 
	C592.483093,561.842224 592.022278,563.624512 590.908997,564.992249 
	C589.469360,566.760742 588.992432,568.823853 588.921692,571.043335 
	C588.788696,575.217590 587.270203,578.811035 583.793274,582.285522 
z"/>
<path fill="#000000" opacity="1.000000" stroke="none" 
	d="
M629.513550,400.293732 
	C629.180298,402.676239 628.917542,404.628265 628.600342,406.984772 
	C624.356079,404.309845 621.085693,401.243164 618.068359,397.791595 
	C614.857239,394.118347 610.953430,392.383026 606.055542,394.659302 
	C605.014587,395.143097 603.813232,395.275177 602.694458,395.599304 
	C593.903198,398.146301 593.903870,398.148560 591.094238,406.746613 
	C589.593262,404.594360 590.035034,402.391571 590.031250,400.369751 
	C589.959473,362.089142 589.939819,323.808411 589.905029,285.527710 
	C589.903503,283.865753 589.911011,282.201294 589.827087,280.542450 
	C589.626038,276.568634 590.827454,275.017700 595.384460,275.425659 
	C600.486267,275.882385 605.715759,274.645386 610.896484,274.561554 
	C616.129211,274.476898 621.106995,272.416534 626.387207,272.898895 
	C629.021790,273.139587 630.121765,274.312714 630.114746,277.056061 
	C630.012939,317.000427 629.986206,356.944977 629.922546,396.889435 
	C629.920959,397.880859 629.701721,398.871979 629.513550,400.293732 
z"/>
<path fill="#000000" opacity="1.000000" stroke="none" 
	d="
M628.602722,181.023773 
	C631.804749,182.114227 631.278809,184.503326 631.314270,186.592957 
	C631.497375,197.390915 630.856628,208.201279 631.837585,218.987762 
	C632.154053,222.468292 630.775574,224.235306 627.019104,224.193817 
	C615.716064,224.068939 604.410156,224.022934 593.107422,224.142105 
	C588.904785,224.186401 587.673462,222.291656 587.725403,218.358612 
	C587.865784,207.721603 587.840942,197.079285 587.661987,186.442780 
	C587.593445,182.367157 589.212646,180.728149 593.241089,180.776505 
	C604.875732,180.916199 616.512268,180.894318 628.602722,181.023773 
z"/>
<path fill="#000000" opacity="1.000000" stroke="none" 
	d="
M386.631989,378.071716 
	C386.014343,382.754608 385.597351,387.064728 384.875397,391.323120 
	C383.202240,401.192078 378.909210,409.784821 371.915405,416.990417 
	C371.683624,417.229248 371.334229,417.420441 371.227509,417.704437 
	C367.976105,426.355865 361.312286,429.155884 352.659180,428.606384 
	C352.179230,428.575928 351.639374,428.709045 351.201080,428.919495 
	C345.131561,431.833527 339.900635,430.312592 335.123596,426.011414 
	C333.627136,424.664001 331.661438,424.959137 329.855835,424.955750 
	C314.871918,424.927795 299.762299,423.776154 284.949982,425.371735 
	C275.722626,426.365662 267.088196,427.438965 258.256500,424.223633 
	C256.882019,423.723206 255.332886,423.659058 254.098373,422.728485 
	C245.865585,416.523071 238.603119,409.545868 235.537491,399.256622 
	C234.382843,395.381165 234.152512,391.286072 233.432755,387.355133 
	C232.428894,381.872650 238.844650,378.806915 239.322311,374.019348 
	C242.330902,373.546112 241.052826,375.850586 242.577225,376.257446 
	C243.465103,374.674866 244.336136,373.122314 245.068573,371.816833 
	C244.872910,369.652710 243.222855,371.618195 242.625290,370.218140 
	C243.497757,363.488373 247.669434,358.787079 253.504547,355.350983 
	C256.946564,353.324127 260.609497,351.673340 263.036469,348.272003 
	C264.742554,345.880890 266.305603,346.463226 267.769043,349.627838 
	C269.228027,345.020050 272.888489,342.630096 271.800659,337.265594 
	C271.143433,334.024750 275.150482,330.297791 278.734680,328.271729 
	C280.807159,327.100220 282.430176,325.587799 284.115265,323.946625 
	C292.805756,315.482727 302.544495,309.314209 315.452850,310.747772 
	C316.602051,310.875427 317.884399,311.018280 318.931702,310.654846 
	C326.612579,307.989441 333.273621,311.434052 340.426422,313.437653 
	C353.414490,317.075745 363.399323,325.210358 372.020050,334.536713 
	C380.363373,343.562805 385.063293,355.096863 385.974396,367.740753 
	C386.213043,371.052399 386.454132,374.363861 386.631989,378.071716 
M308.101776,340.503448 
	C304.770996,342.938202 301.247375,344.999023 297.639465,347.032318 
	C292.128815,350.138031 285.569489,353.293121 283.452942,359.608398 
	C281.069855,366.719055 277.493103,373.000885 273.088989,378.711548 
	C267.855835,385.497284 267.853607,392.963013 271.253632,399.374420 
	C274.422211,405.349365 280.516144,409.735199 288.240082,409.777313 
	C301.235962,409.848175 314.232239,409.831116 327.228363,409.862518 
	C329.453308,409.867889 331.771149,409.720062 333.161743,407.839752 
	C335.577759,404.572968 338.548889,404.203979 342.384125,404.549194 
	C346.115753,404.885010 350.529510,405.811676 352.862030,401.036804 
	C354.387421,397.914185 355.697479,394.477386 357.974976,391.973602 
	C363.117615,386.320129 360.079590,380.768677 358.475586,375.192200 
	C357.661438,372.361633 356.658173,367.679901 355.021088,367.344330 
	C349.844513,366.283234 351.098846,362.323792 349.960236,359.386322 
	C344.803802,346.083679 345.947723,344.069214 330.883545,341.050446 
	C329.753784,340.824066 328.678284,340.220581 327.548248,340.119415 
	C321.258881,339.556213 314.970276,336.701263 308.101776,340.503448 
z"/>
</svg>